# Delivery Dash City mesh (CourierVest_Body); units = studs; +X right, +Y up, -Z forward
o CourierVest_Body
v 1.15000 -0.40261 0.50320
v -0.29879 0.28436 -0.56507
v -0.66751 -0.31524 -0.29116
v 0.28694 0.73900 -0.24843
v 0.14958 -0.15903 -0.64176
v -0.78178 0.83205 0.19406
v -0.16050 -0.66730 -0.64149
v 0.67303 0.73832 -0.24484
v 0.62746 -0.16693 -0.56035
v -0.49128 0.94711 -0.41836
v -0.62329 -0.89317 -0.40687
v 0.32470 0.54997 0.40029
v 0.00078 -0.95000 0.43474
v -0.52051 0.63956 -0.44375
v -0.31951 0.54616 0.40387
v 1.14652 0.74137 -0.24953
v 0.64477 -0.08693 -0.33918
v -0.50681 0.94940 -0.47854
v -0.70553 -0.90694 0.02937
v 0.00326 0.37345 -0.47686
v 0.14652 -0.66450 -0.65000
v -1.14675 0.74089 -0.23921
v -0.65119 -0.08703 -0.33413
v 0.28275 0.82664 0.64087
v 0.64060 -0.70637 -0.40537
v -0.75408 0.73758 0.64985
v -0.62929 0.04928 -0.36662
v 0.31983 0.90253 -0.06815
v 0.67071 -0.39849 0.52384
v -0.52468 0.95000 -0.43921
v -0.00101 -0.90779 -0.35600
v 0.62273 0.05088 -0.36733
v 0.66605 -0.33031 -0.36442
v -0.32169 0.94568 0.41339
v -0.63775 -0.67119 -0.57211
v -0.00008 0.36015 -0.33884
v -0.00182 -0.94673 0.51652
v -0.75749 0.75489 -0.28662
v -0.26263 0.26258 -0.36917
v 0.21954 0.85420 -0.34828
v 0.70142 -0.90652 0.02806
v -0.49110 0.64150 -0.48237
v -1.15000 -0.40528 0.54023
v -0.36800 0.75082 -0.32549
v -0.00680 0.37095 -0.48148
v -0.66953 0.74436 -0.23618
v -0.09335 -0.70771 -0.46865
v 0.75408 0.73678 0.65000
v 0.62593 -0.67077 -0.57759
v -0.32196 0.90360 -0.06484
v -0.51576 0.25704 -0.35765
v 0.31758 0.94361 0.41355
v -0.09627 -0.08785 -0.42362
v -0.56251 0.63018 -0.55894
v -0.62572 -0.94553 0.44926
v 0.31258 0.58502 -0.25357
v 0.72258 0.23107 0.10028
v -0.47610 0.94528 -0.45768
v -1.14808 -0.32038 -0.28374
v -0.24948 0.62915 -0.56295
v 0.08188 -0.70492 -0.47287
v -0.68007 0.67117 0.63420
v -0.15950 -0.15818 -0.63818
v 0.78273 0.83607 0.19079
v 1.14015 -0.33241 -0.40319
v -0.21884 0.85373 -0.34623
v -0.65004 -0.70662 -0.39808
v 0.67639 0.67316 0.63263
v 0.01700 -0.87444 -0.51015
v -0.50596 0.28219 -0.55971
v -0.66781 -0.40436 0.54795
v 0.75541 0.75327 -0.28889
v 0.62695 -0.94391 0.45113
v -0.47891 0.64103 -0.42598
v -0.72789 0.22558 0.10745
v -0.38383 0.74601 -0.56617
v 0.08825 -0.08730 -0.42243
v -1.13966 0.67488 0.62911
v -0.01888 -0.87668 -0.51193
v 1.14084 0.67438 0.63266
v 0.61937 -0.89310 -0.41575
v -0.31244 0.59181 -0.25051
v -0.63847 -0.16372 -0.55426
v -0.37233 -0.39757 -0.40139
v -0.00050 -0.91807 0.02643
v 0.36357 -0.39662 -0.40604
vn 0.99992 0.00820 0.00930
vn -0.01100 -0.99554 -0.09370
vn -0.01000 -0.99547 -0.09450
vn 0.99988 -0.00470 -0.01480
vn 0.03160 -0.09710 0.99477
vn 0.01530 -0.99017 -0.13900
vn 0.00670 -0.98857 -0.15060
vn 0.95634 -0.14591 -0.25321
vn -0.01960 0.00800 -0.99978
vn 0.00450 0.04220 -0.99910
vn 1.00000 0.00200 0.00080
vn -0.01200 0.03420 -0.99934
vn 0.00840 -0.99157 -0.12930
vn -0.86238 -0.22180 0.45509
vn -0.04980 0.22960 -0.97201
vn -0.51100 0.25720 0.82020
vn -0.89679 -0.17190 0.40770
vn 0.00340 -0.02660 0.99964
vn 0.12820 0.02720 -0.99138
vn -0.93653 0.01080 -0.35041
vn 0.11370 0.01240 -0.99344
vn 0.05980 0.93379 -0.35280
vn -0.30350 0.91729 0.25780
vn -0.18609 0.97686 -0.10540
vn -0.99479 -0.08950 -0.04880
vn -0.22420 0.95321 -0.20280
vn -0.99339 -0.10130 0.05400
vn -0.10940 0.00550 -0.99398
vn -0.02190 -0.96392 -0.26530
vn 0.89279 0.03110 -0.44940
vn 0.93187 -0.00010 -0.36279
vn -0.00810 0.11580 -0.99324
vn -0.99996 0.00650 0.00570
vn -0.06110 0.09100 -0.99398
vn -0.00530 0.99586 0.09080
vn 0.99461 0.00180 -0.10370
vn 0.99373 -0.00010 -0.11180
vn 0.04580 0.91120 -0.40940
vn -0.30590 -0.03260 0.95150
vn 0.06960 0.99732 0.02260
vn -0.42809 -0.01690 0.90358
vn 0.12040 0.99271 0.00510
vn 0.89108 0.02960 0.45289
vn -0.97035 0.00180 -0.24169
vn -0.13120 0.03360 -0.99079
vn -0.14621 -0.98644 -0.07460
vn -0.00650 -0.97147 -0.23709
vn -0.00430 0.01940 -0.99980
vn 0.00030 0.02740 -0.99962
vn -0.99953 -0.02000 0.02320
vn 0.01030 0.99781 0.06540
vn -0.00510 0.99634 0.08530
vn -0.00580 -0.99880 0.04860
vn 0.89732 -0.43741 0.05900
vn -0.01890 -0.09440 0.99536
vn -0.70360 -0.03150 -0.70990
vn -0.85729 -0.00630 -0.51479
vn 0.99998 0.00590 -0.00140
vn 0.99956 0.02490 0.01640
vn -0.00240 0.99568 0.09280
vn 0.46030 0.03420 -0.88710
vn -0.99894 -0.01890 -0.04190
vn -0.96748 -0.10190 0.23150
vn -0.96489 -0.00580 -0.26260
vn 0.14359 0.02320 -0.98936
vn -0.90173 0.43172 0.02240
vn 0.18890 0.12090 -0.97452
vn -0.99939 -0.01110 -0.03310
vn 0.01820 -0.96500 -0.26160
vn -0.90423 0.03830 -0.42532
vn -0.99994 0.00100 0.01090
vn -0.00720 0.99564 0.09300
vn -0.04700 0.91713 -0.39581
vn -0.99693 0.00460 -0.07810
vn 0.01120 -0.05900 0.99820
vn -0.05480 0.74141 0.66881
vn -0.02400 -0.05290 0.99831
vn 0.13800 0.82449 0.54879
vn 0.00250 0.84522 0.53441
vn 0.02040 -0.96852 -0.24810
vn -0.08110 -0.10290 0.99138
vn -0.09560 0.07300 -0.99274
vn -0.14820 0.02120 -0.98873
vn -0.19740 0.12840 -0.97188
vn -0.96714 -0.17181 -0.18741
vn 0.17369 0.97956 -0.10150
vn -0.99954 0.02900 -0.00920
vn 0.21920 0.95101 -0.21800
vn 0.18849 0.93887 -0.28809
vn -0.99996 0.00510 0.00740
vn 0.00020 -0.08240 0.99660
vn -0.98839 0.00250 -0.15190
vn 0.00260 -0.96657 -0.25639
vn 0.98876 0.00090 -0.14949
vn 0.09570 0.07090 -0.99288
vn 0.97147 0.00620 -0.23709
vn 0.96307 -0.00530 -0.26919
vn 0.96572 -0.17930 -0.18770
vn 0.11880 0.04100 -0.99207
vn -0.02520 -0.96930 -0.24460
vn -0.99569 0.00110 -0.09270
vn -0.13170 0.02820 -0.99089
vn 0.90249 0.43040 -0.01630
vn 0.31050 0.15950 0.93710
vn 0.99797 -0.00910 -0.06310
vn -0.18450 0.93802 -0.29340
vn 0.86818 0.16760 0.46709
vn 0.97146 -0.09980 0.21519
vn 0.99827 -0.01710 -0.05630
vn 0.14760 -0.98637 -0.07270
vn 0.96088 -0.03290 -0.27500
vn 0.00330 -0.99209 -0.12550
vn -0.00890 -0.06680 0.99773
vn -0.01200 -0.06530 0.99779
vn -0.99994 0.01040 -0.00180
vn -0.71879 0.19610 0.66699
vn 0.62768 0.77498 -0.07360
vn -0.51529 0.85668 0.02380
vn 0.99979 0.01120 0.01710
vn 0.00660 0.99468 0.10280
vn 0.99773 -0.06730 0.00040
vn 0.29410 0.91749 0.26780
vn 0.94944 -0.31391 -0.00500
vn 0.86537 -0.19539 0.46148
vn -0.98116 -0.17149 -0.08900
vn -0.05690 0.93370 -0.35350
vn -0.00970 0.00010 -0.99995
vn -0.00980 -0.03460 -0.99935
vn 0.03560 -0.06440 0.99729
vn 0.03990 -0.99897 -0.02150
vn 0.12090 -0.05800 0.99097
vn 0.09500 -0.08320 0.99199
vn 0.00240 -0.99719 -0.07490
vn -0.01980 -0.99926 -0.03290
vn 0.01960 -0.99927 -0.03290
vn -0.00140 -0.99742 -0.07180
vn 0.01090 -0.99536 -0.09560
vn -0.00830 -0.99539 -0.09560
vn -0.09090 -0.08570 0.99217
vn -0.11220 -0.06470 0.99158
f 1//1 16//1 80//1
f 1//2 29//2 33//2
f 1//3 33//3 65//3
f 1//4 65//4 16//4
f 1//5 80//5 29//5
f 2//6 39//6 51//6
f 2//7 51//7 70//7
f 2//8 60//8 39//8
f 2//9 70//9 60//9
f 3//10 22//10 46//10
f 3//11 46//11 71//11
f 3//12 59//12 22//12
f 3//13 71//13 59//13
f 4//14 28//14 40//14
f 4//15 36//15 82//15
f 4//16 40//16 36//16
f 4//17 56//17 28//17
f 4//18 82//18 56//18
f 5//19 9//19 49//19
f 5//20 21//20 77//20
f 5//21 49//21 21//21
f 5//22 77//22 9//22
f 6//23 26//23 34//23
f 6//24 34//24 50//24
f 6//25 38//25 75//25
f 6//26 50//26 38//26
f 6//27 75//27 26//27
f 7//28 35//28 63//28
f 7//29 47//29 35//29
f 7//30 53//30 47//30
f 7//31 63//31 53//31
f 8//32 16//32 65//32
f 8//33 33//33 68//33
f 8//34 65//34 33//34
f 8//35 68//35 16//35
f 9//36 17//36 25//36
f 9//37 25//37 49//37
f 9//38 77//38 17//38
f 10//39 14//39 74//39
f 10//40 18//40 30//40
f 10//41 30//41 14//41
f 10//42 58//42 18//42
f 10//43 74//43 58//43
f 11//44 19//44 27//44
f 11//45 27//45 79//45
f 11//46 55//46 19//46
f 11//47 79//47 31//47
f 12//48 15//48 34//48
f 12//49 34//49 52//49
f 12//50 52//50 56//50
f 12//51 56//51 82//51
f 12//52 82//52 15//52
f 13//53 37//53 55//53
f 13//54 48//54 37//54
f 13//55 73//55 48//55
f 14//56 18//56 42//56
f 14//57 30//57 18//57
f 15//58 50//58 34//58
f 15//59 82//59 50//59
f 16//60 68//60 80//60
f 18//61 58//61 42//61
f 19//62 26//62 75//62
f 19//63 55//63 26//63
f 19//64 75//64 27//64
f 20//65 32//65 69//65
f 20//66 36//66 40//66
f 20//67 40//67 32//67
f 20//68 69//68 36//68
f 21//69 49//69 61//69
f 21//70 61//70 77//70
f 22//71 59//71 78//71
f 22//72 78//72 46//72
f 23//73 53//73 83//73
f 23//74 83//74 67//74
f 24//75 26//75 37//75
f 24//76 34//76 26//76
f 24//77 37//77 48//77
f 24//78 48//78 52//78
f 24//79 52//79 34//79
f 25//80 61//80 49//80
f 26//81 55//81 37//81
f 27//82 38//82 66//82
f 27//83 45//83 79//83
f 27//84 66//84 45//84
f 27//85 75//85 38//85
f 28//86 52//86 64//86
f 28//87 56//87 52//87
f 28//88 64//88 72//88
f 28//89 72//89 40//89
f 29//90 68//90 33//90
f 29//91 80//91 68//91
f 31//92 36//92 69//92
f 31//93 69//93 81//93
f 31//94 79//94 36//94
f 32//95 40//95 72//95
f 32//96 41//96 81//96
f 32//97 57//97 41//97
f 32//98 72//98 57//98
f 32//99 81//99 69//99
f 35//100 47//100 67//100
f 35//101 67//101 83//101
f 35//102 83//102 63//102
f 36//103 45//103 66//103
f 36//104 66//104 82//104
f 36//105 79//105 45//105
f 38//106 50//106 66//106
f 39//107 60//107 44//107
f 41//108 48//108 73//108
f 41//109 57//109 48//109
f 41//110 73//110 81//110
f 42//111 58//111 74//111
f 43//112 59//112 71//112
f 43//113 62//113 78//113
f 43//114 71//114 62//114
f 43//115 78//115 59//115
f 44//116 54//116 51//116
f 44//117 60//117 76//117
f 44//118 76//118 54//118
f 46//119 62//119 71//119
f 46//120 78//120 62//120
f 48//121 57//121 72//121
f 48//122 64//122 52//122
f 48//123 72//123 64//123
f 50//124 82//124 66//124
f 51//125 54//125 70//125
f 53//126 63//126 83//126
f 54//127 60//127 70//127
f 54//128 76//128 60//128
f 39//129 44//129 51//129
f 14//130 42//130 74//130
f 53//131 23//131 84//131
f 23//132 67//132 84//132
f 67//132 47//132 84//132
f 47//131 53//131 84//131
f 55//133 11//133 85//133
f 11//134 31//134 85//134
f 31//135 81//135 85//135
f 81//136 73//136 85//136
f 73//137 13//137 85//137
f 13//138 55//138 85//138
f 25//139 17//139 86//139
f 17//140 77//140 86//140
f 77//140 61//140 86//140
f 61//139 25//139 86//139
