# Delivery Dash City mesh (CourierVest_Source); units = studs; +X right, +Y up, -Z forward
o CourierVest_Source
v -0.49629 -0.16184 -0.16307
v 0.12876 0.11353 0.18571
v 0.28784 -0.12682 0.09628
v -0.12394 0.29577 0.08233
v -0.06468 -0.06420 0.21075
v 0.33714 0.33307 -0.06214
v 0.06910 -0.26794 0.21066
v -0.29051 0.29550 0.08116
v -0.27085 -0.06737 0.18417
v 0.21181 0.37919 0.13781
v 0.26876 -0.35848 0.13406
v -0.14023 0.22000 -0.12947
v -0.00048 -0.38126 -0.14072
v 0.22442 0.25591 0.14610
v 0.13770 0.21847 -0.13064
v -0.49479 0.29672 0.08269
v -0.27832 -0.03530 0.11196
v 0.21851 0.38011 0.15746
v 0.30424 -0.36400 -0.00837
v -0.00155 0.14924 0.15691
v -0.06336 -0.26682 0.21344
v 0.49460 0.29653 0.07932
v 0.28080 -0.03534 0.11031
v -0.12213 0.33090 -0.20802
v -0.27652 -0.28360 0.13357
v 0.32519 0.29520 -0.21095
v 0.27135 0.01930 0.12092
v -0.13813 0.36132 0.02347
v -0.28951 -0.16019 -0.16981
v 0.22622 0.38035 0.14462
v 0.00029 -0.36434 0.11745
v -0.26881 0.01994 0.12115
v -0.28750 -0.13286 0.12020
v 0.13864 0.37862 -0.13375
v 0.27500 -0.26950 0.18801
v -0.00011 0.14391 0.11185
v 0.00064 -0.37995 -0.16742
v 0.32666 0.30214 0.09480
v 0.11316 0.10480 0.12175
v -0.09486 0.34195 0.11493
v -0.30276 -0.36383 -0.00794
v 0.21173 0.25669 0.15871
v 0.49600 -0.16291 -0.17516
v 0.15862 0.30051 0.10749
v 0.00279 0.14824 0.15842
v 0.28871 0.29792 0.07833
v 0.04013 -0.28414 0.15423
v -0.32548 0.29488 -0.21100
v -0.27019 -0.26933 0.18980
v 0.13876 0.36175 0.02239
v 0.22237 0.10258 0.11799
v -0.13716 0.37779 -0.13380
v 0.04139 -0.03567 0.13953
v 0.24254 0.25215 0.18371
v 0.26981 -0.37947 -0.14546
v -0.13500 0.23405 0.08401
v -0.31189 0.09217 -0.03152
v 0.20526 0.37846 0.15065
v 0.49517 -0.12888 0.09386
v 0.10749 0.25174 0.18502
v -0.03547 -0.28302 0.15561
v 0.29326 0.26858 -0.20584
v 0.06867 -0.06386 0.20958
v -0.33784 0.33468 -0.06107
v -0.49204 -0.13370 0.13286
v 0.09427 0.34176 0.11426
v 0.28030 -0.28370 0.13119
v -0.29196 0.26938 -0.20533
v -0.00748 -0.35097 0.16778
v 0.21814 0.11266 0.18396
v 0.28797 -0.16254 -0.17768
v -0.32605 0.30149 0.09554
v -0.27063 -0.37882 -0.14607
v 0.20647 0.25650 0.14030
v 0.31389 0.08997 -0.03386
v 0.16545 0.29858 0.18607
v -0.03822 -0.03545 0.13914
v 0.49154 0.27007 -0.20418
v 0.00800 -0.35187 0.16836
v -0.49234 0.26987 -0.20534
v -0.26736 -0.35845 0.13696
v 0.13465 0.23677 0.08301
v 0.27531 -0.06608 0.18218
v 0.16049 -0.15982 0.13227
v 0.00007 -0.36846 -0.00741
v -0.15700 -0.15944 0.13379
vn -0.99990 0.00820 -0.00930
vn 0.01100 -0.99550 0.09370
vn 0.01000 -0.99550 0.09450
vn -0.99990 -0.00470 0.01480
vn -0.03160 -0.09710 -0.99480
vn -0.01530 -0.99020 0.13900
vn -0.00670 -0.98860 0.15060
vn -0.95630 -0.14590 0.25320
vn 0.01960 0.00800 0.99980
vn -0.00450 0.04220 0.99910
vn -1.00000 0.00200 -0.00080
vn 0.01200 0.03420 0.99930
vn -0.00840 -0.99160 0.12930
vn 0.86240 -0.22180 -0.45510
vn 0.04980 0.22960 0.97200
vn 0.51100 0.25720 -0.82020
vn 0.89680 -0.17190 -0.40770
vn -0.00340 -0.02660 -0.99960
vn -0.12820 0.02720 0.99140
vn 0.93650 0.01080 0.35040
vn -0.11370 0.01240 0.99340
vn -0.05980 0.93380 0.35280
vn 0.30350 0.91730 -0.25780
vn 0.18610 0.97690 0.10540
vn 0.99480 -0.08950 0.04880
vn 0.22420 0.95320 0.20280
vn 0.99340 -0.10130 -0.05400
vn 0.10940 0.00550 0.99400
vn 0.02190 -0.96390 0.26530
vn -0.89280 0.03110 0.44940
vn -0.93190 -0.00010 0.36280
vn 0.00810 0.11580 0.99320
vn 1.00000 0.00650 -0.00570
vn 0.06110 0.09100 0.99400
vn 0.00530 0.99590 -0.09080
vn -0.99460 0.00180 0.10370
vn -0.99370 -0.00010 0.11180
vn -0.04580 0.91120 0.40940
vn 0.30590 -0.03260 -0.95150
vn -0.06960 0.99730 -0.02260
vn 0.42810 -0.01690 -0.90360
vn -0.12040 0.99270 -0.00510
vn -0.89110 0.02960 -0.45290
vn 0.97040 0.00180 0.24170
vn 0.13120 0.03360 0.99080
vn 0.14620 -0.98640 0.07460
vn 0.00650 -0.97150 0.23710
vn 0.00430 0.01940 0.99980
vn -0.00030 0.02740 0.99960
vn 0.99950 -0.02000 -0.02320
vn -0.01030 0.99780 -0.06540
vn 0.00510 0.99630 -0.08530
vn 0.00580 -0.99880 -0.04860
vn -0.89730 -0.43740 -0.05900
vn 0.01890 -0.09440 -0.99540
vn 0.70360 -0.03150 0.70990
vn 0.85730 -0.00630 0.51480
vn -1.00000 0.00590 0.00140
vn -0.99960 0.02490 -0.01640
vn 0.00240 0.99570 -0.09280
vn -0.46030 0.03420 0.88710
vn 0.99890 -0.01890 0.04190
vn 0.96750 -0.10190 -0.23150
vn 0.96490 -0.00580 0.26260
vn -0.14360 0.02320 0.98940
vn 0.90170 0.43170 -0.02240
vn -0.18890 0.12090 0.97450
vn 0.99940 -0.01110 0.03310
vn -0.01820 -0.96500 0.26160
vn 0.90420 0.03830 0.42530
vn 0.99990 0.00100 -0.01090
vn 0.00720 0.99560 -0.09300
vn 0.04700 0.91710 0.39580
vn 0.99690 0.00460 0.07810
vn -0.01120 -0.05900 -0.99820
vn 0.05480 0.74140 -0.66880
vn 0.02400 -0.05290 -0.99830
vn -0.13800 0.82450 -0.54880
vn -0.00250 0.84520 -0.53440
vn -0.02040 -0.96850 0.24810
vn 0.08110 -0.10290 -0.99140
vn 0.09560 0.07300 0.99270
vn 0.14820 0.02120 0.98870
vn 0.19740 0.12840 0.97190
vn 0.96710 -0.17180 0.18740
vn -0.17370 0.97960 0.10150
vn 0.99950 0.02900 0.00920
vn -0.21920 0.95100 0.21800
vn -0.18850 0.93890 0.28810
vn 1.00000 0.00510 -0.00740
vn -0.00020 -0.08240 -0.99660
vn 0.98840 0.00250 0.15190
vn -0.00260 -0.96660 0.25640
vn -0.98880 0.00090 0.14950
vn -0.09570 0.07090 0.99290
vn -0.97150 0.00620 0.23710
vn -0.96310 -0.00530 0.26920
vn -0.96570 -0.17930 0.18770
vn -0.11880 0.04100 0.99210
vn 0.02520 -0.96930 0.24460
vn 0.99570 0.00110 0.09270
vn 0.13170 0.02820 0.99090
vn -0.90250 0.43040 0.01630
vn -0.31050 0.15950 -0.93710
vn -0.99800 -0.00910 0.06310
vn 0.18450 0.93800 0.29340
vn -0.86820 0.16760 -0.46710
vn -0.97150 -0.09980 -0.21520
vn -0.99830 -0.01710 0.05630
vn -0.14760 -0.98640 0.07270
vn -0.96090 -0.03290 0.27500
vn -0.00330 -0.99210 0.12550
vn 0.00890 -0.06680 -0.99770
vn 0.01200 -0.06530 -0.99780
vn 0.99990 0.01040 0.00180
vn 0.71880 0.19610 -0.66700
vn -0.62770 0.77500 0.07360
vn 0.51530 0.85670 -0.02380
vn -0.99980 0.01120 -0.01710
vn -0.00660 0.99470 -0.10280
vn -0.99770 -0.06730 -0.00040
vn -0.29410 0.91750 -0.26780
vn -0.94940 -0.31390 0.00500
vn -0.86540 -0.19540 -0.46150
vn 0.98120 -0.17150 0.08900
vn 0.05690 0.93370 0.35350
vn 0.00970 0.00010 1.00000
vn 0.00980 -0.03460 0.99940
vn -0.03560 -0.06440 -0.99730
vn -0.03990 -0.99900 0.02150
vn -0.12090 -0.05800 -0.99100
vn -0.09500 -0.08320 -0.99200
vn -0.00240 -0.99720 0.07490
vn 0.01980 -0.99930 0.03290
vn -0.01960 -0.99930 0.03290
vn 0.00140 -0.99740 0.07180
vn -0.01090 -0.99540 0.09560
vn 0.00830 -0.99540 0.09560
vn 0.09090 -0.08570 -0.99220
vn 0.11220 -0.06470 -0.99160
f 1//1 16//1 80//1
f 1//2 29//2 33//2
f 1//3 33//3 65//3
f 1//4 65//4 16//4
f 1//5 80//5 29//5
f 2//6 39//6 51//6
f 2//7 51//7 70//7
f 2//8 60//8 39//8
f 2//9 70//9 60//9
f 3//10 22//10 46//10
f 3//11 46//11 71//11
f 3//12 59//12 22//12
f 3//13 71//13 59//13
f 4//14 28//14 40//14
f 4//15 36//15 82//15
f 4//16 40//16 36//16
f 4//17 56//17 28//17
f 4//18 82//18 56//18
f 5//19 9//19 49//19
f 5//20 21//20 77//20
f 5//21 49//21 21//21
f 5//22 77//22 9//22
f 6//23 26//23 34//23
f 6//24 34//24 50//24
f 6//25 38//25 75//25
f 6//26 50//26 38//26
f 6//27 75//27 26//27
f 7//28 35//28 63//28
f 7//29 47//29 35//29
f 7//30 53//30 47//30
f 7//31 63//31 53//31
f 8//32 16//32 65//32
f 8//33 33//33 68//33
f 8//34 65//34 33//34
f 8//35 68//35 16//35
f 9//36 17//36 25//36
f 9//37 25//37 49//37
f 9//38 77//38 17//38
f 10//39 14//39 74//39
f 10//40 18//40 30//40
f 10//41 30//41 14//41
f 10//42 58//42 18//42
f 10//43 74//43 58//43
f 11//44 19//44 27//44
f 11//45 27//45 79//45
f 11//46 55//46 19//46
f 11//47 79//47 31//47
f 12//48 15//48 34//48
f 12//49 34//49 52//49
f 12//50 52//50 56//50
f 12//51 56//51 82//51
f 12//52 82//52 15//52
f 13//53 37//53 55//53
f 13//54 48//54 37//54
f 13//55 73//55 48//55
f 14//56 18//56 42//56
f 14//57 30//57 18//57
f 15//58 50//58 34//58
f 15//59 82//59 50//59
f 16//60 68//60 80//60
f 18//61 58//61 42//61
f 19//62 26//62 75//62
f 19//63 55//63 26//63
f 19//64 75//64 27//64
f 20//65 32//65 69//65
f 20//66 36//66 40//66
f 20//67 40//67 32//67
f 20//68 69//68 36//68
f 21//69 49//69 61//69
f 21//70 61//70 77//70
f 22//71 59//71 78//71
f 22//72 78//72 46//72
f 23//73 53//73 83//73
f 23//74 83//74 67//74
f 24//75 26//75 37//75
f 24//76 34//76 26//76
f 24//77 37//77 48//77
f 24//78 48//78 52//78
f 24//79 52//79 34//79
f 25//80 61//80 49//80
f 26//81 55//81 37//81
f 27//82 38//82 66//82
f 27//83 45//83 79//83
f 27//84 66//84 45//84
f 27//85 75//85 38//85
f 28//86 52//86 64//86
f 28//87 56//87 52//87
f 28//88 64//88 72//88
f 28//89 72//89 40//89
f 29//90 68//90 33//90
f 29//91 80//91 68//91
f 31//92 36//92 69//92
f 31//93 69//93 81//93
f 31//94 79//94 36//94
f 32//95 40//95 72//95
f 32//96 41//96 81//96
f 32//97 57//97 41//97
f 32//98 72//98 57//98
f 32//99 81//99 69//99
f 35//100 47//100 67//100
f 35//101 67//101 83//101
f 35//102 83//102 63//102
f 36//103 45//103 66//103
f 36//104 66//104 82//104
f 36//105 79//105 45//105
f 38//106 50//106 66//106
f 39//107 60//107 44//107
f 41//108 48//108 73//108
f 41//109 57//109 48//109
f 41//110 73//110 81//110
f 42//111 58//111 74//111
f 43//112 59//112 71//112
f 43//113 62//113 78//113
f 43//114 71//114 62//114
f 43//115 78//115 59//115
f 44//116 54//116 51//116
f 44//117 60//117 76//117
f 44//118 76//118 54//118
f 46//119 62//119 71//119
f 46//120 78//120 62//120
f 48//121 57//121 72//121
f 48//122 64//122 52//122
f 48//123 72//123 64//123
f 50//124 82//124 66//124
f 51//125 54//125 70//125
f 53//126 63//126 83//126
f 54//127 60//127 70//127
f 54//128 76//128 60//128
f 39//129 44//129 51//129
f 14//130 42//130 74//130
f 53//131 23//131 84//131
f 23//132 67//132 84//132
f 67//132 47//132 84//132
f 47//131 53//131 84//131
f 55//133 11//133 85//133
f 11//134 31//134 85//134
f 31//135 81//135 85//135
f 81//136 73//136 85//136
f 73//137 13//137 85//137
f 13//138 55//138 85//138
f 25//139 17//139 86//139
f 17//140 77//140 86//140
f 77//140 61//140 86//140
f 61//139 25//139 86//139
